<mxfile host="app.diagrams.net" agent="Mozilla/5.0 (X11; Ubuntu; Linux x86_64; rv:135.0) Gecko/20100101 Firefox/135.0" version="26.0.13">
  <diagram id="C5RBs43oDa-KdzZeNtuy" name="Page-1">
    <mxGraphModel dx="1954" dy="1129" grid="1" gridSize="10" guides="1" tooltips="1" connect="1" arrows="1" fold="1" page="1" pageScale="1" pageWidth="827" pageHeight="1169" math="1" shadow="0">
      <root>
        <mxCell id="WIyWlLk6GJQsqaUBKTNV-0" />
        <mxCell id="WIyWlLk6GJQsqaUBKTNV-1" parent="WIyWlLk6GJQsqaUBKTNV-0" />
        <mxCell id="YqxZcYL8w1RzL6dzMpQD-23" style="edgeStyle=orthogonalEdgeStyle;rounded=0;orthogonalLoop=1;jettySize=auto;html=1;exitX=0.5;exitY=1;exitDx=0;exitDy=0;exitPerimeter=0;entryX=0.5;entryY=0;entryDx=0;entryDy=0;" edge="1" parent="WIyWlLk6GJQsqaUBKTNV-1" source="YqxZcYL8w1RzL6dzMpQD-0" target="YqxZcYL8w1RzL6dzMpQD-18">
          <mxGeometry relative="1" as="geometry" />
        </mxCell>
        <mxCell id="YqxZcYL8w1RzL6dzMpQD-25" style="edgeStyle=orthogonalEdgeStyle;rounded=0;orthogonalLoop=1;jettySize=auto;html=1;exitX=1;exitY=0.5;exitDx=0;exitDy=0;exitPerimeter=0;entryX=1;entryY=0.5;entryDx=0;entryDy=0;" edge="1" parent="WIyWlLk6GJQsqaUBKTNV-1" source="YqxZcYL8w1RzL6dzMpQD-0" target="YqxZcYL8w1RzL6dzMpQD-14">
          <mxGeometry relative="1" as="geometry">
            <Array as="points">
              <mxPoint x="500" y="730" />
              <mxPoint x="500" y="350" />
            </Array>
          </mxGeometry>
        </mxCell>
        <mxCell id="YqxZcYL8w1RzL6dzMpQD-0" value="$$|\kappa_{i+1} - \kappa_i|&amp;lt; \epsilon$$ " style="strokeWidth=2;html=1;shape=mxgraph.flowchart.decision;whiteSpace=wrap;" vertex="1" parent="WIyWlLk6GJQsqaUBKTNV-1">
          <mxGeometry x="275" y="680" width="130" height="100" as="geometry" />
        </mxCell>
        <mxCell id="YqxZcYL8w1RzL6dzMpQD-13" style="edgeStyle=orthogonalEdgeStyle;rounded=0;orthogonalLoop=1;jettySize=auto;html=1;exitX=0.5;exitY=1;exitDx=0;exitDy=0;entryX=0.5;entryY=0;entryDx=0;entryDy=0;" edge="1" parent="WIyWlLk6GJQsqaUBKTNV-1" source="YqxZcYL8w1RzL6dzMpQD-5" target="YqxZcYL8w1RzL6dzMpQD-11">
          <mxGeometry relative="1" as="geometry" />
        </mxCell>
        <mxCell id="YqxZcYL8w1RzL6dzMpQD-5" value="&lt;div&gt;Enter medium,&lt;/div&gt;&lt;div&gt;source and focus information&lt;/div&gt;" style="shape=parallelogram;html=1;strokeWidth=2;perimeter=parallelogramPerimeter;whiteSpace=wrap;rounded=1;arcSize=12;size=0.15000000000000002;" vertex="1" parent="WIyWlLk6GJQsqaUBKTNV-1">
          <mxGeometry x="270" y="110" width="140" height="60" as="geometry" />
        </mxCell>
        <mxCell id="YqxZcYL8w1RzL6dzMpQD-9" style="edgeStyle=orthogonalEdgeStyle;rounded=0;orthogonalLoop=1;jettySize=auto;html=1;exitX=0.5;exitY=1;exitDx=0;exitDy=0;exitPerimeter=0;entryX=0.5;entryY=0;entryDx=0;entryDy=0;" edge="1" parent="WIyWlLk6GJQsqaUBKTNV-1" source="YqxZcYL8w1RzL6dzMpQD-6" target="YqxZcYL8w1RzL6dzMpQD-5">
          <mxGeometry relative="1" as="geometry" />
        </mxCell>
        <mxCell id="YqxZcYL8w1RzL6dzMpQD-6" value="Start" style="strokeWidth=2;html=1;shape=mxgraph.flowchart.start_1;whiteSpace=wrap;" vertex="1" parent="WIyWlLk6GJQsqaUBKTNV-1">
          <mxGeometry x="290" y="20" width="100" height="60" as="geometry" />
        </mxCell>
        <mxCell id="YqxZcYL8w1RzL6dzMpQD-20" style="edgeStyle=orthogonalEdgeStyle;rounded=0;orthogonalLoop=1;jettySize=auto;html=1;exitX=0.5;exitY=1;exitDx=0;exitDy=0;entryX=0.5;entryY=0;entryDx=0;entryDy=0;" edge="1" parent="WIyWlLk6GJQsqaUBKTNV-1" source="YqxZcYL8w1RzL6dzMpQD-11" target="YqxZcYL8w1RzL6dzMpQD-14">
          <mxGeometry relative="1" as="geometry" />
        </mxCell>
        <mxCell id="YqxZcYL8w1RzL6dzMpQD-11" value="&lt;div&gt;Refraction point index guess:&lt;/div&gt;&lt;div&gt;\(k=\kappa_0 = 0\)&lt;/div&gt;" style="rounded=1;whiteSpace=wrap;html=1;absoluteArcSize=1;arcSize=14;strokeWidth=2;" vertex="1" parent="WIyWlLk6GJQsqaUBKTNV-1">
          <mxGeometry x="250" y="210" width="180" height="60" as="geometry" />
        </mxCell>
        <mxCell id="YqxZcYL8w1RzL6dzMpQD-19" style="edgeStyle=orthogonalEdgeStyle;rounded=0;orthogonalLoop=1;jettySize=auto;html=1;exitX=0.5;exitY=1;exitDx=0;exitDy=0;" edge="1" parent="WIyWlLk6GJQsqaUBKTNV-1" source="YqxZcYL8w1RzL6dzMpQD-14" target="YqxZcYL8w1RzL6dzMpQD-15">
          <mxGeometry relative="1" as="geometry" />
        </mxCell>
        <mxCell id="YqxZcYL8w1RzL6dzMpQD-14" value="&lt;div&gt;Compute TOF 1st order derivative \(V_{k+1} \) and \(V_{k}\).&lt;/div&gt;" style="rounded=1;whiteSpace=wrap;html=1;absoluteArcSize=1;arcSize=14;strokeWidth=2;" vertex="1" parent="WIyWlLk6GJQsqaUBKTNV-1">
          <mxGeometry x="245" y="310" width="190" height="80" as="geometry" />
        </mxCell>
        <mxCell id="YqxZcYL8w1RzL6dzMpQD-21" style="edgeStyle=orthogonalEdgeStyle;rounded=0;orthogonalLoop=1;jettySize=auto;html=1;exitX=0.5;exitY=1;exitDx=0;exitDy=0;entryX=0.5;entryY=0;entryDx=0;entryDy=0;" edge="1" parent="WIyWlLk6GJQsqaUBKTNV-1" source="YqxZcYL8w1RzL6dzMpQD-15" target="YqxZcYL8w1RzL6dzMpQD-16">
          <mxGeometry relative="1" as="geometry" />
        </mxCell>
        <mxCell id="YqxZcYL8w1RzL6dzMpQD-15" value="&lt;div&gt;Update float index:&lt;/div&gt;&lt;div&gt;\(\kappa_{i+1} = \kappa_{i} - \frac{V_{k}}{V_{k+1}-V_k}\)&lt;/div&gt;" style="rounded=1;whiteSpace=wrap;html=1;absoluteArcSize=1;arcSize=14;strokeWidth=2;" vertex="1" parent="WIyWlLk6GJQsqaUBKTNV-1">
          <mxGeometry x="257.5" y="430" width="165" height="80" as="geometry" />
        </mxCell>
        <mxCell id="YqxZcYL8w1RzL6dzMpQD-16" value="&lt;div&gt;Round float to integer index:&lt;/div&gt;&lt;div&gt;\(k = \begin{cases} \text{round}(\kappa_i) \quad 0 &amp;lt; \kappa_i &amp;lt; S \\ 0 \quad \kappa_i \leq 0 \\ S \quad \kappa_i \geq S \end{cases}\)&lt;/div&gt;" style="rounded=1;whiteSpace=wrap;html=1;absoluteArcSize=1;arcSize=14;strokeWidth=2;" vertex="1" parent="WIyWlLk6GJQsqaUBKTNV-1">
          <mxGeometry x="228.75" y="560" width="222.5" height="80" as="geometry" />
        </mxCell>
        <mxCell id="YqxZcYL8w1RzL6dzMpQD-17" value="&lt;div&gt;End&lt;/div&gt;" style="strokeWidth=2;html=1;shape=mxgraph.flowchart.terminator;whiteSpace=wrap;" vertex="1" parent="WIyWlLk6GJQsqaUBKTNV-1">
          <mxGeometry x="290" y="920" width="100" height="60" as="geometry" />
        </mxCell>
        <mxCell id="YqxZcYL8w1RzL6dzMpQD-18" value="&lt;div&gt;Print solution:&lt;/div&gt;&lt;div&gt;\(k_{i+1}\)&lt;/div&gt;" style="shape=parallelogram;html=1;strokeWidth=2;perimeter=parallelogramPerimeter;whiteSpace=wrap;rounded=1;arcSize=12;size=0.15000000000000002;" vertex="1" parent="WIyWlLk6GJQsqaUBKTNV-1">
          <mxGeometry x="270" y="820" width="140" height="60" as="geometry" />
        </mxCell>
        <mxCell id="YqxZcYL8w1RzL6dzMpQD-22" style="edgeStyle=orthogonalEdgeStyle;rounded=0;orthogonalLoop=1;jettySize=auto;html=1;exitX=0.5;exitY=1;exitDx=0;exitDy=0;entryX=0.5;entryY=0;entryDx=0;entryDy=0;entryPerimeter=0;" edge="1" parent="WIyWlLk6GJQsqaUBKTNV-1" source="YqxZcYL8w1RzL6dzMpQD-16" target="YqxZcYL8w1RzL6dzMpQD-0">
          <mxGeometry relative="1" as="geometry" />
        </mxCell>
        <mxCell id="YqxZcYL8w1RzL6dzMpQD-24" style="edgeStyle=orthogonalEdgeStyle;rounded=0;orthogonalLoop=1;jettySize=auto;html=1;exitX=0.5;exitY=1;exitDx=0;exitDy=0;entryX=0.5;entryY=0;entryDx=0;entryDy=0;entryPerimeter=0;" edge="1" parent="WIyWlLk6GJQsqaUBKTNV-1" source="YqxZcYL8w1RzL6dzMpQD-18" target="YqxZcYL8w1RzL6dzMpQD-17">
          <mxGeometry relative="1" as="geometry" />
        </mxCell>
        <mxCell id="YqxZcYL8w1RzL6dzMpQD-26" value="No" style="text;html=1;align=center;verticalAlign=middle;whiteSpace=wrap;rounded=0;" vertex="1" parent="WIyWlLk6GJQsqaUBKTNV-1">
          <mxGeometry x="414" y="700" width="60" height="30" as="geometry" />
        </mxCell>
        <mxCell id="YqxZcYL8w1RzL6dzMpQD-27" value="Yes" style="text;html=1;align=center;verticalAlign=middle;whiteSpace=wrap;rounded=0;" vertex="1" parent="WIyWlLk6GJQsqaUBKTNV-1">
          <mxGeometry x="340" y="780" width="60" height="30" as="geometry" />
        </mxCell>
      </root>
    </mxGraphModel>
  </diagram>
</mxfile>
